PathFileType	3	(X/Y/Z)	D:\Jess\PFP\Labelled\PA23\20251014\SRRun01.trc
DataRate	CameraRate	NumFrames	NumMarkers	Units	OrigDataRate	OrigDataStartFrame	OrigNumFrames
250.0	250.0	4	37	mm	250.0	35000	2501
Frame#	Time	C7			T10			CLAV			LSHO			RSHO			LASIS			RASIS			LPSIS			RPSIS			LILCR			RILCR			LGTR			LTHI			LLTHI			LLEP			LMEP			LPSH			LLSH			LDSH			LLMAL			LMMAL			LTOE			L5TH			LHEE			RGTR			RTHI			RLTHI			RLEP			RMEP			RPSH			RLSH			RDSH			RLMAL			RMMAL			RTOE			R5TH			RHEE			
		X1	Y1	Z1	X2	Y2	Z2	X3	Y3	Z3	X4	Y4	Z4	X5	Y5	Z5	X6	Y6	Z6	X7	Y7	Z7	X8	Y8	Z8	X9	Y9	Z9	X10	Y10	Z10	X11	Y11	Z11	X12	Y12	Z12	X13	Y13	Z13	X14	Y14	Z14	X15	Y15	Z15	X16	Y16	Z16	X17	Y17	Z17	X18	Y18	Z18	X19	Y19	Z19	X20	Y20	Z20	X21	Y21	Z21	X22	Y22	Z22	X23	Y23	Z23	X24	Y24	Z24	X25	Y25	Z25	X26	Y26	Z26	X27	Y27	Z27	X28	Y28	Z28	X29	Y29	Z29	X30	Y30	Z30	X31	Y31	Z31	X32	Y32	Z32	X33	Y33	Z33	X34	Y34	Z34	X35	Y35	Z35	X36	Y36	Z36	X37	Y37	Z37	

1	139.996	899.3079732378337	1732.074567009319	-884.535270546438	907.0277282900768	1478.058229118518	-816.9432734715787	857.8765662539022	1627.09333431237	-1046.776308388809	707.1189023093051	1711.707343484577	-920.3527423412243	1039.503777694896	1713.005410333775	-975.4073349682899	746.9490957031761	1213.380205127635	-999.9145187633279	1002.162029718198	1177.866756926804	-1008.240701744611	849.701517083389	1246.932105539844	-823.2550994182501	903.8905520834958	1240.125362161595	-824.403497246043	725.6673849933337	1310.778306251942	-927.6902673716709	1034.045012629868	1273.698881997711	-961.5262115098312	686.8080334005092	1080.285004330856	-944.9160023755144	770.0792963042999	958.3332897901309	-1111.814041188384	727.8017022448645	798.3420670150996	-1088.386621299731	748.9821630582131	677.3645006363936	-1109.066787347884	nan	nan	nan	792.2349301720097	552.9864723694512	-1116.216384760041	729.3138712387637	502.2101169784089	-987.2828854721407	787.5389110610462	364.8593528940405	-960.2867994985666	749.7367315912779	272.11075836274	-839.6050087984444	nan	nan	nan	742.0379289286466	148.9976458672328	-960.0467745535373	707.4169605464971	143.7203501517764	-903.2871007332011	809.4166615815797	273.000110439839	-756.0232913370037	1054.117612171387	1043.887109639276	-880.0407174932179	946.1961331815324	857.1755461506775	-929.774174919599	1008.003946170004	786.7679692088026	-795.581992755185	983.1299682383629	634.3225752914807	-728.8870339735203	nan	nan	nan	924.9543443312049	507.6884739673064	-722.4359004814808	975.9439031330314	431.0550320079378	-584.3510936749226	907.1244213894397	310.2820681941135	-582.0273675241715	934.4864008447676	216.2049469398595	-472.477046102601	nan	nan	nan	893.7584611537538	66.18293890319333	-563.1418132737796	942.1513925933992	67.93321803907116	-511.0471585725938	881.8916901796511	235.9222016644719	-382.2809163429042	
2	140	899.5398542484064	1734.307012129558	-884.7803615759565	907.885191086958	1480.673529312502	-817.6560282461747	857.2876876504954	1630.311645774101	-1047.158276838896	707.4445965111278	1714.317698295881	-920.0179615854056	1039.15856745615	1715.726370979879	-976.0725378826737	746.4057407550176	1217.446748153376	-1001.067608947507	1001.403514903052	1180.890817082663	-1009.689245311243	849.6674475358132	1250.717593577276	-824.6575660045418	903.6822119777995	1243.85470356518	-826.057527964859	725.3737823200299	1314.460955213623	-928.3693874084022	1033.386164381453	1276.874124947768	-962.9781202410644	686.3035805804178	1084.147868922638	-945.6917126541614	771.1647343377584	961.5918545888976	-1112.462025694966	729.2864988414626	801.565784307125	-1087.6660810939	749.7831217372958	678.676007532109	-1108.133332432543	nan	nan	nan	793.062809420415	554.4636059880378	-1118.569710780936	730.6038740008843	499.0591788519823	-991.8984603396943	789.1979450600069	361.4518062650329	-970.4276970220126	751.9162873408545	264.4381933390832	-853.7990025219987	nan	nan	nan	744.0250208074692	147.1650584643783	-978.6442209587949	709.505661671687	139.5022922192185	-922.3216557846979	811.8145999639895	262.2049191585951	-770.7104683357098	1053.887964205891	1047.721016355176	-880.8416531714716	948.1778800240165	859.2477598429352	-928.9659863683523	1008.700402596348	791.1678758906182	-793.1742631562774	985.0189499141467	639.2754817101653	-724.9030408252204	nan	nan	nan	927.3857913061521	512.0225170928639	-718.1705054027685	978.1262404882962	436.003715201665	-579.6195334394333	909.6855102700962	314.6940425043097	-576.9834067452435	937.0599069946246	221.1481219228812	-467.4224172182669	nan	nan	nan	895.4753814043012	69.43498146674229	-554.2331354223494	943.0892557677325	71.58621010951551	-501.5281099966945	884.9318401223318	244.0549388589085	-378.1657066641056	
3	140.004	899.7727907411563	1736.516405778391	-885.0239053828633	908.7330672212743	1483.261988175177	-818.3623014438762	856.706608243659	1633.499077446566	-1047.534679514858	707.7708615003928	1716.904351253437	-919.6855759053684	1038.819281880669	1718.420084077265	-976.729122390455	745.8695466621294	1221.465007482692	-1002.206936230122	1000.651245242492	1183.882370774205	-1011.122673927946	849.6395683046718	1254.478804729191	-826.0475424763613	903.4802518907076	1247.559220529033	-827.6983166475628	725.0847803436856	1318.110638956178	-929.0567783647218	1032.736394612379	1280.011298217703	-964.4247757378114	685.8073720878983	1087.972808996043	-946.4600130834294	772.2549075510664	964.8152957876226	-1113.103228004397	730.753926513683	804.765182520841	-1086.937201894323	750.5752620559603	679.9650067305313	-1107.184275595604	nan	nan	nan	793.8685402648528	555.9168105067394	-1120.893866043641	731.8748466829439	495.9149418443337	-996.4631261458949	790.8309869321462	358.0664664319486	-980.4894327828786	754.0684740329776	256.8303293711666	-867.8942042551415	nan	nan	nan	746.0072303790514	145.3485297782453	-997.1000387323959	711.5841536152715	135.3204256324092	-941.2169113819359	814.1764682311256	251.5091117678912	-785.2939573600064	1053.668624909803	1051.52551072312	-881.635959666504	950.180632324853	861.3031147824358	-928.1425768326859	1009.390469098993	795.5423567575135	-790.7668794509233	986.8813631941192	644.1664361103467	-720.9814813871733	nan	nan	nan	929.7624218879733	516.307061438379	-713.9513830084999	980.2915720803503	440.8865336297728	-574.9568571969967	912.2002224831849	319.0702251748798	-571.9746160966566	939.6064899530218	226.0499782320682	-462.3967252934391	nan	nan	nan	897.1593116345896	72.69422080209047	-545.4241018765929	944.0189236725928	75.21758838250159	-492.1294651373299	887.9560409041517	252.0877848004342	-374.0468192202751	
4	140.008	900.0037222878741	1738.676957716497	-885.2669833459637	909.5497136193137	1485.791939465868	-819.0572548689773	856.1396915057173	1636.620038076818	-1047.902257211709	708.092735835394	1719.438406426289	-919.3629917133879	1038.490713949978	1721.05328604548	-977.3708862614812	745.3539606340382	1225.378215472316	-1003.327275282086	999.9167269058236	1186.813417296416	-1012.529473198747	849.6187321704112	1258.1812780764	-827.4169345958952	903.2863387149006	1251.207718584275	-829.3160698594983	724.8025071477618	1321.680675874709	-929.7677395219464	1032.099915325321	1283.079105657717	-965.8626811561803	685.3294029736475	1091.702501157783	-947.2177539959274	773.3540934286663	967.9209329090469	-1113.701529657091	732.1759301707094	807.8768360216832	-1086.170301076582	751.3464496198889	681.18185002258	-1106.196234273256	nan	nan	nan	794.6442604009538	557.3109199152769	-1123.163528005639	733.1192684671669	492.7655047085329	-1000.971497321995	792.4378778784626	354.7258460329227	-990.449628977442	756.1940703065592	249.3432907874862	-881.8820369499874	nan	nan	nan	748.0073419160434	143.6041194898411	-1015.361975823181	713.6713082754003	131.2385604512993	-959.9356528967725	816.4968669629653	240.9883058981443	-799.7724243497469	1053.467619054849	1055.27235306585	-882.4222701284706	952.2044744459051	863.323726965841	-927.3190638565341	1010.069157910628	799.8484590593702	-788.3955625916078	988.6904163133718	648.9290320269514	-717.2063449550948	nan	nan	nan	932.0382378863314	520.4933456340665	-709.8214842700793	982.438748392436	445.6742144712873	-570.4172964435108	914.6489467260172	323.4107199027586	-567.0000199754118	942.1327983175958	230.9256782279287	-457.3812529708409	nan	nan	nan	898.8001391968239	76.01494743228413	-536.7316433913687	944.9592631517633	78.8697283668874	-482.8933446466588	890.9936702696568	259.9957079829622	-369.8801737151408	
